# xmcd
#
# Track frame offsets:
#	182
#	22152
#	40505
#	60105
#	84077
#	102265
#	120412
#	145122
#	161197
#	179232
#	204035
#	218030
#	232270
#	246225
#	267260
#
# Disc length: 3877 seconds
#
# Revision: 1
# Processed by: cddbd v1.4PL0 Copyright (c) Steve Scherf et al.
# Submitted via: audiograbber 1.80.04
#
DISCID=c90f230f
DTITLE=Bloodstone - Unreal
DYEAR=1974
DGENRE=Pop
TTITLE0=Outside Woman
TTITLE1=What Did You Do To Me? - Part 1
TTITLE2=What Did You Do To Me? - Part 2
TTITLE3=Unreal
TTITLE4=Everybody Needs Love
TTITLE5=Something
TTITLE6=Keep Our Own Thing Together
TTITLE7=Let Me Ride
TTITLE8=The Traffic Cop  (Dance)
TTITLE9=Moulded Oldies: Hound Dog - Searchin' - So Fine
TTITLE10=This Thing Is Heavy
TTITLE11=Friendship
TTITLE12=Lady Of The Night
TTITLE13=Dumb Dude
TTITLE14=You Don't Understand
EXTD=Best version of "Something" that you may ever hear.
EXTT0=
EXTT1=
EXTT2=
EXTT3=
EXTT4=
EXTT5=
EXTT6=
EXTT7=
EXTT8=
EXTT9=
EXTT10=
EXTT11=
EXTT12=
EXTT13=
EXTT14=
PLAYORDER=
